# xmcd CD database file
#
# Track frame offsets:
#	150
#	19686
#	41061
#	54982
#	70001
#	87540
#	104586
#	123816
#	139042
#	154145
#	167708
#	191573
#	208756
#	221730
#	236169
#	256197
#	274929
#	291354
#
# Disc length: 4006 seconds
#
# Revision: 0
# Processed by: cddbd v1.5.1PL2 Copyright (c) Steve Scherf et al.
# Submitted via: CDex 1.51
#
DISCID=110fa412
DTITLE=Washboard Original Jazz Orchestra - i got rhythm!
DYEAR=2006
DGENRE=Jazz
TTITLE0=jazz me blues
TTITLE1=i got rhythm
TTITLE2=effervescent blues
TTITLE3=i knewer knew
TTITLE4=keepin' out of mischief now
TTITLE5=tiger rag
TTITLE6=my blue heaven
TTITLE7=scratch my back
TTITLE8=mood indigo
TTITLE9=front and center
TTITLE10=body and soul
TTITLE11=louisiana
TTITLE12=limehouse blues
TTITLE13=sweet sue
TTITLE14=crazy rhythm
TTITLE15=ain't misbeheaven
TTITLE16=indiana
TTITLE17=blue and sentimental
EXTD=YEAR: 2006
EXTT0=
EXTT1=
EXTT2=
EXTT3=
EXTT4=
EXTT5=
EXTT6=
EXTT7=
EXTT8=
EXTT9=
EXTT10=
EXTT11=
EXTT12=
EXTT13=
EXTT14=
EXTT15=
EXTT16=
EXTT17=
PLAYORDER=
